# Blender v2.93.4 OBJ File: ''
# www.blender.org
mtllib d4.mtl
o Cube.001
v 1.000000 -0.402546 0.573139
v 0.000000 1.207637 -0.028268
v -1.000000 -0.402546 0.573139
v 0.000000 -0.402546 -1.118009
vt 0.375000 0.750000
vt 0.625000 1.000000
vt 0.375000 1.000000
vt 0.375000 0.000000
vt 0.625000 0.250000
vt 0.375000 0.250000
vt 0.375000 0.500000
vt 0.125000 0.750000
vt 0.625000 0.750000
vn 0.0000 0.3499 0.9368
vn -0.8138 0.3257 -0.4812
vn 0.0000 -1.0000 -0.0000
vn 0.8138 0.3257 -0.4812
usemtl Material.001
s 1
f 1/1/1 2/2/1 3/3/1
f 3/4/2 2/5/2 4/6/2
f 4/7/3 1/1/3 3/8/3
f 4/7/4 2/9/4 1/1/4
