# Blender v2.93.4 OBJ File: ''
# www.blender.org
mtllib d8.mtl
o Sphere
v 0.000000 -0.000000 -0.866025
v 0.866025 -0.000000 0.000000
v -0.000000 0.903120 0.000000
v -0.000000 -0.000000 0.866026
v -0.866025 -0.000000 -0.000000
v -0.000000 -0.903120 0.000000
vt 0.625000 0.000000
vt 0.750000 0.333333
vt 0.500000 0.333333
vt 0.750000 0.666667
vt 0.625000 1.000000
vt 0.500000 0.666667
vt 0.375000 0.000000
vt 0.250000 0.333333
vt 0.375000 1.000000
vt 0.250000 0.666667
vt 0.125000 0.000000
vt 0.000000 0.333333
vt 0.125000 1.000000
vt 0.000000 0.666667
vt 0.875000 0.000000
vt 1.000000 0.333333
vt 1.000000 0.666667
vt 0.875000 1.000000
vn 0.5853 -0.5612 -0.5853
vn 0.5853 0.5612 -0.5853
vn 0.5853 -0.5612 0.5853
vn 0.5853 0.5612 0.5853
vn -0.5853 -0.5612 0.5853
vn -0.5853 0.5612 0.5853
vn -0.5853 -0.5612 -0.5853
vn -0.5853 0.5612 -0.5853
usemtl None
s off
f 6/1/1 1/2/1 2/3/1
f 1/4/2 3/5/2 2/6/2
f 6/7/3 2/3/3 4/8/3
f 2/6/4 3/9/4 4/10/4
f 6/11/5 4/8/5 5/12/5
f 4/10/6 3/13/6 5/14/6
f 6/15/7 5/16/7 1/2/7
f 5/17/8 3/18/8 1/4/8
